<?xml version="1.0" standalone="no"?>
<!DOCTYPE svg PUBLIC "-//W3C//DTD SVG 20010904//EN"
 "http://www.w3.org/TR/2001/REC-SVG-20010904/DTD/svg10.dtd">
<svg version="1.0" xmlns="http://www.w3.org/2000/svg"
 width="1170.000000pt" height="619.000000pt" viewBox="0 0 1170.000000 619.000000"
 preserveAspectRatio="xMidYMid meet">

<g transform="translate(0.000000,619.000000) scale(0.100000,-0.100000)"
fill="#000000" stroke="none">
<path d="M0 3100 l0 -3090 5850 0 5850 0 0 3090 0 3090 -5850 0 -5850 0 0
-3090z m6080 2820 c295 -43 412 -76 580 -163 211 -110 368 -248 493 -432 45
-66 117 -206 117 -227 0 -8 4 -18 8 -23 11 -13 38 -99 51 -160 6 -27 15 -71
21 -97 15 -69 12 -321 -4 -400 -19 -89 -60 -213 -98 -290 -79 -164 -270 -377
-433 -484 -131 -85 -299 -158 -350 -152 -28 3 -29 7 -51 103 -12 55 -36 162
-53 239 -18 76 -30 144 -28 150 3 6 22 17 43 25 161 57 323 200 394 345 58
121 76 222 61 346 -14 115 -24 146 -81 260 -89 179 -240 305 -457 383 -116 42
-201 52 -428 52 -200 -1 -215 -2 -310 -29 -55 -16 -104 -33 -109 -37 -6 -5
-16 -9 -24 -9 -13 0 -162 -69 -172 -80 -3 -3 -32 -23 -64 -45 -114 -77 -235
-244 -287 -400 -21 -61 -24 -89 -24 -220 0 -182 11 -229 81 -340 60 -94 132
-142 245 -165 92 -18 173 5 239 70 79 77 93 128 98 357 l4 192 28 9 c39 14
455 15 480 2 20 -11 20 -23 20 -840 l0 -830 -253 0 c-183 0 -256 3 -265 12 -9
9 -12 84 -12 274 0 195 -3 263 -12 266 -7 3 -29 -2 -51 -9 -96 -33 -361 -42
-414 -15 -10 6 -38 16 -63 23 -124 35 -238 105 -346 213 -107 108 -153 173
-202 283 -78 177 -108 347 -99 551 18 400 189 726 512 974 225 174 505 279
850 321 73 8 297 7 365 -3z m-3712 -3572 c2 -194 6 -278 13 -278 6 0 27 13 45
30 91 80 267 68 335 -22 24 -32 24 -37 29 -286 3 -140 1 -256 -3 -259 -12 -7
-146 -7 -154 0 -3 4 -6 101 -7 217 -2 196 -3 211 -21 225 -38 30 -65 36 -108
24 -51 -13 -72 -31 -101 -84 -18 -35 -22 -61 -26 -214 l-5 -174 -77 -1 c-56
-1 -79 3 -83 12 -8 21 -6 1078 2 1086 4 4 41 5 83 4 l75 -3 3 -277z m1642 18
c0 -146 4 -267 8 -270 5 -3 29 5 53 19 121 64 284 48 376 -37 11 -11 36 -47
54 -81 30 -56 32 -67 32 -156 -1 -83 -4 -104 -28 -153 -32 -68 -68 -106 -137
-143 -90 -49 -225 -45 -306 10 -38 26 -52 25 -52 -4 0 -16 -11 -19 -77 -23
-48 -3 -81 0 -85 6 -10 14 -10 1080 -1 1089 3 4 42 7 85 7 l78 0 0 -264z
m3158 -288 l2 -548 -42 -1 c-89 -3 -105 -2 -116 5 -9 5 -12 140 -12 529 0 287
3 532 6 545 6 22 11 23 83 20 l76 -3 3 -547z m-5356 468 c76 -20 145 -52 156
-72 7 -13 3 -31 -16 -71 -22 -44 -31 -53 -52 -53 -14 0 -30 4 -35 8 -31 26
-178 54 -226 43 -38 -9 -77 -28 -96 -47 -19 -19 -16 -105 5 -131 21 -27 99
-72 177 -103 139 -54 191 -95 232 -178 21 -43 26 -69 26 -125 1 -163 -97 -267
-283 -299 -92 -16 -225 7 -319 54 -75 38 -87 53 -71 88 23 51 42 81 54 86 7 3
48 -12 92 -32 135 -63 256 -57 321 16 17 19 22 38 23 76 0 48 -3 54 -43 91
-28 26 -78 54 -150 84 -172 71 -235 129 -258 237 -32 154 43 276 201 328 50
17 199 17 262 0z m4713 3 c118 -22 208 -88 251 -186 19 -43 24 -71 24 -138 0
-82 -4 -98 -41 -180 -51 -112 -162 -165 -346 -165 l-103 0 0 -164 c0 -90 -2
-171 -5 -179 -5 -11 -23 -13 -81 -11 -41 2 -79 6 -84 9 -16 10 -13 998 2 1013
16 16 301 16 383 1z m3130 -135 c20 -8 45 -56 45 -88 0 -15 -12 -34 -31 -50
-66 -56 -154 -19 -154 65 0 31 6 45 25 60 25 18 83 25 115 13z m-487 -143 c1
-64 8 -121 14 -128 6 -8 33 -13 68 -13 34 0 62 -5 68 -12 12 -15 19 -104 9
-115 -4 -4 -40 -9 -80 -12 l-72 -6 -5 -229 -5 -230 -71 1 c-39 0 -77 3 -83 7
-8 5 -11 76 -11 232 l0 224 -40 0 c-45 0 -62 20 -58 72 3 52 14 66 56 70 l37
3 2 105 c4 160 -1 151 91 148 l77 -3 3 -114z m-5753 -125 c71 -18 106 -39 148
-85 74 -82 98 -168 55 -194 -13 -8 -110 -42 -215 -77 -106 -35 -193 -67 -193
-71 0 -35 122 -81 163 -61 48 22 79 32 95 32 17 -1 72 -80 72 -105 0 -21 -37
-41 -106 -59 -242 -62 -434 71 -434 299 0 189 139 325 340 334 14 0 48 -5 75
-13z m1700 -15 c22 -10 46 -25 54 -34 19 -24 36 -21 49 8 11 25 16 26 79 23
l68 -3 0 -299 0 -298 -72 0 c-80 0 -93 5 -93 33 0 25 -8 24 -50 -5 -120 -80
-309 -51 -395 62 -20 25 -38 57 -41 71 -3 14 -10 36 -15 49 -14 35 -11 138 7
198 50 171 248 266 409 195z m2655 9 c39 -12 76 -30 90 -45 30 -32 38 -32 42
3 3 26 6 27 66 30 38 2 69 -2 78 -9 19 -16 21 -589 2 -589 -26 -2 -133 -2
-145 -1 -7 1 -13 12 -13 26 0 30 -13 31 -50 5 -111 -79 -289 -63 -378 34 -70
76 -77 97 -77 226 0 99 3 121 23 161 43 87 117 148 207 168 61 14 82 13 155
-9z m898 -19 c52 -27 55 -32 37 -75 -22 -51 -46 -61 -92 -36 -71 38 -153 19
-153 -36 0 -29 25 -46 110 -75 156 -53 209 -146 149 -265 -35 -69 -81 -103
-164 -116 -115 -19 -266 27 -281 87 -11 46 67 113 90 76 9 -14 94 -51 118 -51
34 0 88 37 88 59 0 24 -53 65 -95 75 -55 14 -136 60 -158 90 -18 25 -22 45
-22 108 0 93 16 120 96 161 51 27 60 28 145 24 65 -4 103 -11 132 -26z m1706
-11 c71 -36 76 -49 37 -99 -34 -43 -74 -54 -99 -28 -8 7 -41 12 -87 12 -64 0
-77 -3 -100 -25 -64 -59 -86 -170 -45 -223 11 -14 20 -28 20 -32 0 -11 30 -33
69 -50 36 -16 137 -21 143 -6 2 4 13 12 26 15 18 6 30 0 58 -31 41 -45 41 -70
-1 -92 -76 -41 -190 -52 -283 -27 -89 24 -148 71 -190 151 -24 45 -27 61 -27
150 0 90 3 105 27 152 31 57 91 112 158 142 68 31 226 26 294 -9z m-695 6 c15
-18 15 -572 0 -582 -12 -7 -148 -8 -155 -1 -7 7 -5 577 2 588 9 15 140 11 153
-5z m-3811 -264 c4 -89 0 -92 -138 -92 -135 0 -140 3 -140 80 0 75 1 76 146
70 l129 -5 3 -53z m800 -855 c11 -12 4 -99 -18 -227 -5 -30 -12 -92 -16 -138
l-7 -83 -46 1 c-25 0 -67 -3 -94 -6 -41 -5 -52 -2 -80 19 -21 16 -38 41 -46
66 -10 36 -9 47 7 84 25 57 73 87 139 87 27 0 54 -5 61 -12 6 -6 14 -9 17 -6
8 8 25 116 25 160 0 51 34 84 58 55z m1138 -147 c0 -37 5 -47 25 -57 29 -15
31 -36 4 -41 -35 -7 -42 -20 -54 -112 -11 -75 -16 -90 -33 -96 -36 -11 -42 8
-30 101 11 85 11 88 -11 106 l-22 18 27 23 c14 13 30 39 33 58 10 47 13 52 38
48 19 -3 22 -10 23 -48z m-4081 -68 c34 -21 60 -64 52 -85 -5 -15 -22 -21
-121 -49 -76 -21 -73 -64 4 -53 41 6 63 -5 54 -28 -15 -39 -121 -32 -166 11
-25 23 -28 33 -28 87 0 56 3 64 33 92 17 17 39 33 47 36 33 12 96 6 125 -11z
m413 7 c35 -12 49 -45 22 -54 -9 -3 -30 -1 -45 5 -15 6 -36 8 -46 5 -27 -9
-59 -54 -59 -84 1 -45 24 -64 85 -69 55 -4 67 -16 43 -40 -17 -17 -93 -15
-128 3 -40 21 -60 53 -60 98 0 107 88 171 188 136z m412 -2 c13 -7 35 -28 47
-46 75 -111 -51 -241 -180 -187 -45 18 -67 56 -67 112 0 52 33 108 74 124 31
13 98 11 126 -3z m636 3 c8 -8 19 -8 38 0 49 18 102 12 135 -16 28 -23 31 -31
31 -85 0 -51 -4 -63 -31 -94 -40 -45 -96 -63 -151 -48 -44 12 -41 15 -54 -62
-8 -45 -12 -50 -38 -53 l-29 -4 6 54 c23 216 28 256 38 285 11 33 35 43 55 23z
m468 -16 c4 -11 12 -10 40 7 35 20 56 19 56 -3 0 -18 -32 -48 -50 -48 -28 0
-43 -27 -60 -108 -15 -72 -17 -77 -40 -74 -13 1 -25 3 -25 5 -8 9 23 218 33
230 15 17 38 13 46 -9z m465 12 c115 -60 61 -246 -72 -246 -106 0 -163 86
-122 184 28 67 124 98 194 62z m799 2 c6 -8 7 -41 2 -88 -8 -85 0 -110 35
-110 37 0 72 54 80 123 8 62 26 90 51 80 13 -5 15 -16 10 -62 -3 -31 -9 -84
-12 -118 -7 -66 -20 -81 -55 -63 -13 7 -25 7 -38 0 -11 -5 -40 -10 -65 -10
-38 0 -48 4 -62 26 -16 23 -16 35 -5 117 14 107 31 138 59 105z m557 0 c16 -7
25 -19 25 -35 0 -25 -16 -29 -53 -12 -45 20 -107 -30 -107 -87 0 -8 11 -26 25
-40 21 -21 34 -25 68 -22 34 2 42 0 45 -16 5 -25 -14 -36 -68 -36 -89 0 -137
59 -120 146 12 61 19 71 63 93 47 24 84 26 122 9z m706 2 c34 -19 24 -42 -18
-40 -58 3 -63 1 -63 -20 0 -13 13 -26 37 -37 51 -24 69 -62 48 -102 -8 -17
-24 -35 -34 -41 -43 -23 -136 -2 -136 30 0 11 13 15 55 15 43 0 55 3 58 17 2
11 -10 24 -37 38 -64 32 -76 70 -39 120 18 25 29 30 66 30 24 0 52 -5 63 -10z"/>
<path d="M4105 2001 c-22 -10 -51 -34 -65 -52 -22 -30 -25 -44 -25 -115 0 -63
4 -84 18 -98 9 -10 17 -21 17 -26 0 -13 105 -60 135 -60 14 0 49 10 76 21 67
29 99 82 99 164 0 141 -127 223 -255 166z"/>
<path d="M6310 2220 l0 -170 94 0 c60 0 106 5 129 15 51 21 97 95 97 156 0 33
-34 112 -57 131 -30 25 -90 38 -175 38 l-88 0 0 -170z"/>
<path d="M3270 2013 c-26 -10 -73 -54 -87 -80 -12 -24 -19 -103 -8 -103 8 0
100 31 130 45 27 11 87 32 123 41 31 8 25 38 -13 71 -32 27 -46 33 -84 32 -25
0 -53 -3 -61 -6z"/>
<path d="M5008 2010 c-162 -29 -201 -242 -60 -331 79 -50 180 -32 229 40 19
28 23 47 23 114 0 71 -3 84 -26 114 -37 48 -104 74 -166 63z"/>
<path d="M7675 2007 c-148 -47 -171 -246 -40 -332 34 -23 48 -26 98 -23 97 7
149 61 155 162 6 90 -9 128 -65 165 -26 17 -54 31 -62 32 -9 0 -25 2 -36 3
-12 1 -34 -2 -50 -7z"/>
<path d="M6441 724 c-44 -56 -14 -128 53 -128 69 0 111 84 66 132 -31 33 -92
31 -119 -4z"/>
<path d="M3607 738 c-16 -13 -42 -68 -31 -68 17 0 114 33 119 40 3 4 2 15 -1
24 -7 19 -63 22 -87 4z"/>
<path d="M4431 724 c-27 -34 -27 -88 -1 -114 37 -37 103 -18 120 35 27 83 -67
145 -119 79z"/>
<path d="M5202 727 c-15 -16 -22 -36 -22 -64 0 -49 18 -67 67 -67 67 0 106 80
64 132 -26 30 -80 30 -109 -1z"/>
<path d="M5996 723 c-25 -34 -26 -86 -1 -113 43 -47 125 -5 125 64 0 71 -84
104 -124 49z"/>
</g>
</svg>
